<?xml version="1.0" encoding="UTF-8"?>
<svg version="1.1" xmlns="http://www.w3.org/2000/svg" width="500" height="500">
<path d="M0 0 C1.05960937 0.49113281 2.11921875 0.98226562 3.2109375 1.48828125 C10.70138813 5.29507191 18.13496155 10.03691372 23 17 C22.28714844 17.70125 21.57429687 18.4025 20.83984375 19.125 C14.52417087 25.36999566 8.5803643 31.80585896 2.8125 38.5625 C2.214375 39.036875 1.61625 39.51125 1 40 C-2.29268357 39.59012238 -4.17120447 38.27122481 -6.6875 36.1875 C-16.65163978 28.50719263 -28.55975259 25.91084017 -41 27 C-52.81772576 28.96195706 -63.6181256 33.21863433 -71 43 C-79.50987623 57.23348134 -82.52726819 72.01735597 -78.8125 88.375 C-75.54789564 99.58094428 -70.17493575 108.94120478 -60.1875 115.3125 C-48.01113728 121.97229899 -32.8271305 123.52531058 -19.3125 119.8125 C-11.77203163 116.98482436 -5.53683286 112.66916633 1 108 C8.59 115.59 16.18 123.18 24 131 C19.23353469 140.53293062 6.61658853 146.23548155 -3 150 C-6.95908665 151.29648798 -10.96440422 152.30685993 -15.015625 153.2734375 C-17.90422262 153.85921617 -17.90422262 153.85921617 -20 155 C-44.21703476 156.79304947 -69.52822406 153.20161025 -88.93310547 137.42871094 C-103.43827111 124.77580424 -115.54351762 106.66251215 -117 87 C-117.33 86.01 -117.66 85.02 -118 84 C-120.14104275 61.99062252 -114.35188194 40.52425795 -100.625 23.0625 C-76.5000444 -4.39145288 -33.93188746 -16.19604479 0 0 Z " fill="#FEFEFE" transform="translate(235,170)"/>
<path d="M0 0 C4.96622349 -0.02465098 9.93241166 -0.04283649 14.89868164 -0.05493164 C16.58944316 -0.0599719 18.28020029 -0.06680405 19.97094727 -0.07543945 C22.39600707 -0.08751857 24.82100944 -0.09323123 27.24609375 -0.09765625 C28.38672523 -0.10539818 28.38672523 -0.10539818 29.55039978 -0.11329651 C31.3673257 -0.11349238 33.18413127 -0.06197277 35 0 C36 1 36 1 36.12304783 3.6374445 C36.12166514 5.41696585 36.12166514 5.41696585 36.12025452 7.23243713 C36.12110894 7.89074349 36.12196337 8.54904984 36.12284368 9.22730488 C36.1245003 11.44917106 36.11897418 13.67096295 36.11352539 15.89282227 C36.11324353 17.47915648 36.11340123 19.06549082 36.1139679 20.65182495 C36.11425592 24.97188722 36.10835837 29.29192197 36.10139394 33.61197782 C36.09516125 38.12168315 36.09455667 42.63138905 36.09336853 47.14109802 C36.09025496 55.68694374 36.08204124 64.23277674 36.07201904 72.77861685 C36.06085869 82.50517633 36.05534765 92.23173642 36.05032361 101.95830071 C36.03985864 121.97220916 36.02151285 141.98610016 36 162 C24.12 162 12.24 162 0 162 C-0.83080003 157.84599983 -1.11235289 154.6170512 -1.08229065 150.43840027 C-1.07906152 149.79301042 -1.07583239 149.14762058 -1.07250541 148.48267347 C-1.06047874 146.32847523 -1.04109618 144.17440746 -1.02172852 142.02026367 C-1.01158059 140.47275065 -1.00188747 138.92523458 -0.99261475 137.37771606 C-0.96618524 133.18182303 -0.9333953 128.98600098 -0.89946485 124.7901628 C-0.86507077 120.40329056 -0.8365242 116.01638037 -0.80735779 111.62947083 C-0.75125375 103.32455993 -0.68988957 95.01969656 -0.62663645 86.71483737 C-0.55487356 77.25906463 -0.48897331 67.80325387 -0.42356598 58.34743536 C-0.28890158 38.89824073 -0.1468733 19.44910606 0 0 Z " fill="#4FF1C4" transform="translate(333,161)"/>
<path d="M0 0 C1.0374939 0.00303635 1.0374939 0.00303635 2.09594727 0.00613403 C2.80243408 0.00517731 3.5089209 0.00422058 4.23681641 0.00323486 C5.7331552 0.00255321 7.22949694 0.00440649 8.72583008 0.00857544 C11.02374884 0.01392396 13.32147213 0.00863003 15.61938477 0.00222778 C17.06990603 0.00288857 18.52042718 0.00416974 19.97094727 0.00613403 C20.66260986 0.0041098 21.35427246 0.00208557 22.06689453 0 C26.91849503 0.0239943 26.91849503 0.0239943 28.03344727 1.13894653 C28.12990755 2.9738914 28.15532071 4.8125924 28.15370178 6.65007019 C28.15507645 7.84625473 28.15645111 9.04243927 28.15786743 10.27487183 C28.15432783 11.61245752 28.15069302 12.95004297 28.14697266 14.28762817 C28.14669079 15.68677264 28.14684851 17.08591726 28.14741516 18.48506165 C28.14770315 22.29481113 28.14180624 26.10452939 28.1348412 29.91427159 C28.12860785 33.89145962 28.12800388 37.86864829 28.1268158 41.84584045 C28.12370242 49.38233193 28.11548896 56.91880897 28.10546631 64.45529407 C28.09430535 73.03314482 28.08879476 81.61099624 28.08377087 90.18885243 C28.07330635 107.83889199 28.05570679 125.4889181 28.03344727 143.13894653 C25.07534251 144.61799891 22.07873177 144.26085556 18.83813477 144.23660278 C18.13069122 144.23518784 17.42324768 144.23377289 16.69436646 144.23231506 C14.43235058 144.22671254 12.17043328 144.21415971 9.90844727 144.20144653 C8.37589661 144.19643185 6.84334441 144.19186889 5.31079102 144.18777466 C1.55163839 144.1767423 -2.20744045 144.15947605 -5.96655273 144.13894653 C-5.98988066 125.51133538 -6.00753139 106.88372718 -6.01836491 88.25610447 C-6.02352809 79.60759049 -6.03057121 70.95908556 -6.04199219 62.31057739 C-6.05193835 54.77530074 -6.058406 47.24003065 -6.06064123 39.70474762 C-6.06194845 35.71238801 -6.06503503 31.72004717 -6.07228279 27.72769356 C-6.07904194 23.97427555 -6.08116991 20.22088415 -6.07966042 16.46746063 C-6.07993679 15.08591759 -6.08194255 13.70437372 -6.08575821 12.32283592 C-6.09069373 10.44457509 -6.08895069 8.56630016 -6.08680725 6.68803406 C-6.08772904 5.63442468 -6.08865084 4.5808153 -6.08960056 3.49527836 C-5.8650398 -0.804998 -3.7977354 0.01878225 0 0 Z " fill="#4DF1C4" transform="translate(280.966552734375,178.86105346679688)"/>
<path d="M0 0 C0.33 0 0.66 0 1 0 C1 7.26 1 14.52 1 22 C-1.95810476 23.47905238 -4.9547155 23.12190903 -8.1953125 23.09765625 C-8.90275604 23.0962413 -9.61019958 23.09482635 -10.33908081 23.09336853 C-12.60109669 23.087766 -14.86301398 23.07521318 -17.125 23.0625 C-18.65755065 23.05748532 -20.19010286 23.05292236 -21.72265625 23.04882812 C-25.48180888 23.03779577 -29.24088772 23.02052952 -33 23 C-33 20.69 -33 18.38 -33 16 C-32.34 16.33 -31.68 16.66 -31 17 C-31 18.32 -31 19.64 -31 21 C-20.77 21 -10.54 21 0 21 C0 14.07 0 7.14 0 0 Z " fill="#6FDAC6" transform="translate(308,300)"/>
<path d="M0 0 C1.5631897 0.00785522 1.5631897 0.00785522 3.15795898 0.01586914 C4.28266602 0.0190918 5.40737305 0.02231445 6.56616211 0.02563477 C7.75016602 0.03401367 8.93416992 0.04239258 10.15405273 0.05102539 C11.34192383 0.05553711 12.52979492 0.06004883 13.75366211 0.06469727 C16.69967499 0.07652864 19.64558954 0.09301252 22.59155273 0.11352539 C20.59155273 2.11352539 20.59155273 2.11352539 18.3449707 2.34057617 C17.43376465 2.33010254 16.52255859 2.31962891 15.58374023 2.30883789 C14.59760742 2.30239258 13.61147461 2.29594727 12.59545898 2.28930664 C11.04665039 2.26416992 11.04665039 2.26416992 9.46655273 2.23852539 C8.4262793 2.22950195 7.38600586 2.22047852 6.31420898 2.21118164 C3.73976181 2.18756286 1.16577061 2.15462688 -1.40844727 2.11352539 C-1.40844727 5.08352539 -1.40844727 8.05352539 -1.40844727 11.11352539 C-2.39844727 11.60852539 -2.39844727 11.60852539 -3.40844727 12.11352539 C-3.43532006 10.30110487 -3.45478442 8.48857306 -3.47094727 6.67602539 C-3.48254883 5.66668945 -3.49415039 4.65735352 -3.50610352 3.61743164 C-3.376755 0.30093566 -3.30771199 0.15591344 0 0 Z " fill="#62CFAF" transform="translate(278.408447265625,178.886474609375)"/>
<path d="M0 0 C0.33 0 0.66 0 1 0 C1 2.31 1 4.62 1 7 C-10.70795574 7.14534014 -22.31514456 6.71125207 -34 6 C-34 5.67 -34 5.34 -34 5 C-23.11 5 -12.22 5 -1 5 C-0.67 3.35 -0.34 1.7 0 0 Z " fill="#58F0CC" transform="translate(368,316)"/>
<path d="M0 0 C1 1 1 1 1.09765625 3.50390625 C1.08605469 4.51324219 1.07445312 5.52257812 1.0625 6.5625 C1.05347656 7.57441406 1.04445313 8.58632812 1.03515625 9.62890625 C1.02355469 10.41136719 1.01195312 11.19382813 1 12 C0.34 11.67 -0.32 11.34 -1 11 C-0.67 8.03 -0.34 5.06 0 2 C-0.7425 2.495 -1.485 2.99 -2.25 3.5 C-5 5 -5 5 -9 5 C-9 3.68 -9 2.36 -9 1 C-6.01787087 -0.49106457 -3.28390342 -0.11941467 0 0 Z " fill="#6CE9C4" transform="translate(308,179)"/>
<path d="M0 0 C0.99 0.495 0.99 0.495 2 1 C2 2.32 2 3.64 2 5 C7.61 5 13.22 5 19 5 C19 5.33 19 5.66 19 6 C9.595 6.495 9.595 6.495 0 7 C0 4.69 0 2.38 0 0 Z " fill="#64D8B5" transform="translate(275,316)"/>
<path d="M0 0 C0.33 0 0.66 0 1 0 C1 2.31 1 4.62 1 7 C-1.64 7 -4.28 7 -7 7 C-7.33 6.34 -7.66 5.68 -8 5 C-5.69 5 -3.38 5 -1 5 C-0.67 3.35 -0.34 1.7 0 0 Z " fill="#63E4C4" transform="translate(368,316)"/>
</svg>
