<svg width="137" height="137" viewBox="0 0 137 137" fill="none" xmlns="http://www.w3.org/2000/svg">
<path d="M71.2455 3.32862C107.107 4.95023 134.865 35.3366 133.243 71.1985C131.621 107.06 101.235 134.818 65.3732 133.196C29.5113 131.574 1.75408 101.188 3.37569 65.3261C4.99729 29.4642 35.3836 1.70702 71.2455 3.32862ZM65.9226 121.044C95.0733 122.362 119.773 99.7997 121.091 70.649C122.409 41.4983 99.8467 16.7984 70.696 15.4803C41.5453 14.1621 16.8455 36.7249 15.5273 65.8756C14.2092 95.0263 36.7719 119.726 65.9226 121.044Z" fill="url(#paint0_linear_794_29)"/>
<path d="M5.03055 53.2403C1.3136 68.8388 3.49366 85.2608 11.1516 99.3493C18.8096 113.438 31.405 124.198 46.5165 129.562L50.5815 118.111C38.2952 113.749 28.0546 105 21.8283 93.5458C15.6021 82.0913 13.8296 68.7394 16.8516 56.0571L5.03055 53.2403Z" fill="url(#paint1_linear_794_29)"/>
<path d="M8.47538 42.8674C4.26624 52.7848 2.5882 63.5929 3.59219 74.3196C4.59618 85.0463 8.25071 95.3553 14.2271 104.319L24.338 97.5783C19.4789 90.2901 16.5077 81.9085 15.6914 73.1872C14.8751 64.4658 16.2394 55.6784 19.6616 47.6151L8.47538 42.8674Z" fill="url(#paint2_linear_794_29)"/>
<defs>
<linearGradient id="paint0_linear_794_29" x1="3.37569" y1="65.3261" x2="133.243" y2="71.1985" gradientUnits="userSpaceOnUse">
<stop offset="0.230769" stop-color="#E0E0E0"/>
<stop offset="1" stop-color="#9D9D9D"/>
</linearGradient>
<linearGradient id="paint1_linear_794_29" x1="71.1964" y1="3.37356" x2="65.324" y2="133.241" gradientUnits="userSpaceOnUse">
<stop offset="0.831731" stop-color="#52A67C"/>
<stop offset="1" stop-color="#52A67C" stop-opacity="0"/>
</linearGradient>
<linearGradient id="paint2_linear_794_29" x1="71.2455" y1="3.32864" x2="65.3732" y2="133.196" gradientUnits="userSpaceOnUse">
<stop stop-color="#7CFFBE"/>
<stop offset="0.711538" stop-color="#52A67C"/>
</linearGradient>
</defs>
</svg>
