<svg width="32" height="32" viewBox="0 0 32 32" fill="none" xmlns="http://www.w3.org/2000/svg">
<path d="M28.0001 26V16.9998L28.2926 17.2923C28.4806 17.48 28.7354 17.5853 29.001 17.585C29.2666 17.5848 29.5212 17.4791 29.7089 17.2911C29.8965 17.1031 30.0018 16.8483 30.0016 16.5827C30.0013 16.3171 29.8956 16.0625 29.7076 15.8748L17.4139 3.58483C17.0388 3.21005 16.5303 2.99951 16.0001 2.99951C15.4699 2.99951 14.9614 3.21005 14.5864 3.58483L2.29261 15.8748C2.10514 16.0625 1.99988 16.3169 2 16.5822C2.00012 16.8474 2.1056 17.1017 2.29324 17.2892C2.48088 17.4767 2.73531 17.5819 3.00056 17.5818C3.2658 17.5817 3.52014 17.4762 3.70761 17.2886L4.00011 16.9998V25.9998L4.00009 26.5C4.00009 26.5 4.00009 26.7348 4.00009 27C4.00009 27.2652 4.00005 27.5 4.00005 27.5L4.00006 28H28.0001V27.5C28.0001 27.5 28.0001 27.2652 28.0001 27C28.0001 26.7348 28.0001 27 28.0001 26.5V26ZM19.0001 25.9998H13.0001V19.9998C13.0001 19.8672 13.0528 19.74 13.1466 19.6463C13.2403 19.5525 13.3675 19.4998 13.5001 19.4998H18.5001C18.6327 19.4998 18.7599 19.5525 18.8537 19.6463C18.9474 19.74 19.0001 19.8672 19.0001 19.9998V25.9998Z" fill="#E0E0E0"/>
</svg>
